PathFileType	4	(X/Y/Z)	E:\Qualisys_Data\Carbon_Farble_Plate\Data\Amateur_Runner\S14\T3\S14T3V12_c3d.trc
DataRate	CameraRate	NumFrames	NumMarkers	Units	OrigDataRate	OrigDataStartFrame	OrigNumFrames
200.000000	200.000000	4	39	mm	200.000000	286	327
Frame#	Time	LSHO			RSHO			LICST			RICST			LASIS			LHEEL			RASIS			LTROC			RTROC			SACR			LTH1			LSK4			LTH2			LTH3			RHM5			LSK2			LTH4			RTH1			LTOE			RTH2			RTH3			RTH4			LLEP			RLEP			LSK1			LSK3			RSK1			LHM5			RSK2			LFT1			RSK3			RSK4			LLME			RLME			RTOE			RHEEL			RFT1			RFT2			LFT2			
		X1	Y1	Z1	X2	Y2	Z2	X3	Y3	Z3	X4	Y4	Z4	X5	Y5	Z5	X6	Y6	Z6	X7	Y7	Z7	X8	Y8	Z8	X9	Y9	Z9	X10	Y10	Z10	X11	Y11	Z11	X12	Y12	Z12	X13	Y13	Z13	X14	Y14	Z14	X15	Y15	Z15	X16	Y16	Z16	X17	Y17	Z17	X18	Y18	Z18	X19	Y19	Z19	X20	Y20	Z20	X21	Y21	Z21	X22	Y22	Z22	X23	Y23	Z23	X24	Y24	Z24	X25	Y25	Z25	X26	Y26	Z26	X27	Y27	Z27	X28	Y28	Z28	X29	Y29	Z29	X30	Y30	Z30	X31	Y31	Z31	X32	Y32	Z32	X33	Y33	Z33	X34	Y34	Z34	X35	Y35	Z35	X36	Y36	Z36	X37	Y37	Z37	X38	Y38	Z38	X39	Y39	Z39	

287	1.43	1681.708618164062	1418.329956054688	-577.6424560546875	1640.138793945312	1423.337036132812	-275.9628601074219	1630.85400390625	973.0532836914062	-548.8569946289062	1651.803100585938	982.78173828125	-268.69873046875	1673.711791992188	924.3645629882812	-525.8743286132812	1224.468139648438	162.3775634765625	-428.4424438476562	1680.323974609375	940.982421875	-291.2405090332031	1533.342407226562	858.7277221679688	-562.5150756835938	1554.804443359375	855.8377685546875	-229.652587890625	1501.902954101562	975.5941772460938	-414.6299438476562	1580.624145507812	625.3462524414062	-556.2852172851562	1369.98486328125	326.0182800292969	-509.0271911621094	1504.523681640625	634.4234008789062	-538.1075439453125	1579.759643554688	529.302734375	-531.6598510742188	1637.042724609375	92.52617645263672	-239.3931274414062	1429.687744140625	402.6973876953125	-527.7083129882812	1500.30712890625	538.4146728515625	-519.4913940429688	1770.885864257812	696.2283325195312	-240.5180358886719	1444.51806640625	42.46425628662109	-454.1854553222656	1700.527709960938	664.9689331054688	-225.1526641845703	1812.40869140625	606.9976196289062	-264.4256286621094	1737.862426757812	571.6292724609375	-242.6880035400391	1518.364501953125	458.85107421875	-527.2149047851562	1777.5263671875	519.2715454101562	-251.4146270751953	1496.654174804688	354.6552734375	-520.3508911132812	1434.024047851562	275.5188903808594	-504.1677856445312	1745.171752929688	406.1795654296875	-249.5675354003906	1376.334228515625	52.50156402587891	-516.6719970703125	1671.498046875	449.6648559570312	-251.2688751220703	1223.107421875	132.3169860839844	-400.4401245117188	1686.427612304688	321.3013000488281	-263.2217102050781	1622.486206054688	367.2094421386719	-262.6332092285156	1294.301147460938	161.9597473144531	-485.5670166015625	1555.259155273438	207.1719512939453	-280.1108093261719	1708.377075195312	64.64105987548828	-302.33837890625	1494.228393554688	203.9875946044922	-338.5914001464844	1490.847045898438	172.6201171875	-365.0200500488281	1478.541748046875	187.64892578125	-314.6172790527344	1211.557739257812	134.4714202880859	-452.5916137695312
288	1.435	1698.058471679688	1422.864501953125	-576.0867919921875	1652.978515625	1427.329345703125	-275.6833801269531	1647.25341796875	976.5673217773438	-548.2454833984375	1666.1962890625	986.9669799804688	-268.2420349121094	1689.645629882812	927.4102172851562	-524.6688232421875	1231.593994140625	169.6431884765625	-430.0444030761719	1694.954833984375	945.4901733398438	-290.6461486816406	1548.427368164062	862.7175903320312	-561.9135131835938	1570.178466796875	860.7252197265625	-228.5989685058594	1517.728881835938	979.5178833007812	-414.6020202636719	1591.625610351562	629.1728515625	-556.35498046875	1377.223999023438	331.5938415527344	-509.0589599609375	1515.8876953125	639.5716552734375	-537.83837890625	1588.865478515625	532.8931884765625	-532.1796264648438	1670.994995117188	90.42000579833984	-239.3098907470703	1436.466552734375	408.2388000488281	-528.56787109375	1509.35546875	543.145751953125	-519.0840454101562	1786.552490234375	700.3455200195312	-240.8154602050781	1446.534545898438	41.8007926940918	-455.9197082519531	1716.540405273438	669.326171875	-225.1013488769531	1827.76025390625	611.0588989257812	-264.9682312011719	1753.854614257812	576.1712646484375	-242.513671875	1525.868041992188	463.8925476074219	-528.0697631835938	1793.681640625	523.7356567382812	-251.6803588867188	1503.504638671875	359.7762756347656	-521.4860229492188	1440.55517578125	280.6959838867188	-505.568115234375	1764.98095703125	408.0978393554688	-249.8257446289062	1378.603515625	53.07029724121094	-517.5281372070312	1689.471923828125	448.5259399414062	-250.4867858886719	1229.111938476562	140.5316009521484	-401.3369445800781	1710.178833007812	320.77197265625	-262.9742736816406	1644.142211914062	363.6561889648438	-262.3959045410156	1300.785034179688	166.9685821533203	-486.9862670898438	1583.737426757812	201.1672058105469	-279.7934875488281	1743.4052734375	65.58460235595703	-302.0733642578125	1521.901489257812	195.3050537109375	-337.5223693847656	1520.94873046875	163.4171295166016	-364.4909362792969	1508.033325195312	177.9606170654297	-314.0671691894531	1217.727294921875	142.2202758789062	-453.2715759277344
289	1.44	1714.369873046875	1427.540405273438	-574.6796264648438	1665.763549804688	1431.127319335938	-275.4646606445312	1663.733642578125	979.9362182617188	-547.5123291015625	1680.758544921875	991.4786376953124	-267.1591491699219	1705.633666992188	930.5601806640624	-524.3082275390625	1239.037841796875	177.2546844482422	-431.0535888671875	1709.82568359375	950.1298217773438	-289.6983642578125	1563.5849609375	866.70361328125	-561.7407836914062	1585.761474609375	865.0630493164062	-228.0464019775391	1533.23583984375	983.0849609375	-414.3461303710938	1602.918090820312	633.1317138671875	-556.5637817382812	1383.9921875	336.8712463378906	-509.7992553710938	1527.168090820312	644.428955078125	-537.5258178710938	1598.19677734375	536.5619506835938	-532.4829711914062	1704.669067382812	87.959716796875	-239.1701354980469	1444.0595703125	413.570556640625	-529.50830078125	1519.024780273438	548.016845703125	-519.0108032226562	1802.160888671875	704.4675903320312	-240.8186187744141	1448.258911132812	40.97565460205078	-455.6646118164062	1732.109619140625	673.446533203125	-225.1473083496094	1843.124389648438	615.3737182617188	-265.5753173828125	1768.942504882812	579.9074096679688	-243.0951232910156	1533.951904296875	468.1109619140625	-528.3527221679688	1809.370239257812	527.1364135742188	-252.7546081542969	1510.721923828125	364.8779296875	-522.38818359375	1447.565673828125	285.6045227050781	-507.0394287109375	1784.304321289062	410.0476684570312	-250.1289215087891	1381.306762695312	54.18161010742188	-518.4696655273438	1707.493774414062	447.2492065429688	-249.9960479736328	1236.0087890625	147.575439453125	-402.6500854492188	1733.7333984375	320.5184020996094	-263.2269287109375	1665.786010742188	360.7456665039062	-262.3044128417969	1307.642700195312	172.0924682617188	-488.3070373535156	1612.472534179688	195.0284118652344	-279.4192199707031	1778.119140625	66.81175994873047	-302.0599365234375	1548.359375	185.8854827880859	-336.8877258300781	1551.550048828125	154.5991973876953	-364.4775695800781	1537.663452148438	168.1619567871094	-313.7023315429688	1224.401123046875	150.3816528320312	-454.6345825195312
290	1.445	1730.710571289062	1431.602783203125	-573.2040405273438	1678.388916015625	1434.797241210938	-275.1658325195312	1680.175903320312	983.0652465820312	-546.4129028320312	1696.42431640625	996.194091796875	-267.6419372558594	1721.399169921875	933.7727661132812	-523.0917358398438	1247.060180664062	184.7906036376953	-432.4222106933594	1725.043823242188	954.260009765625	-288.8177490234375	1578.689086914062	870.8816528320312	-561.01708984375	1600.98291015625	869.6103515625	-227.3093872070312	1549.005981445312	986.8548583984376	-414.7832336425781	1613.744262695312	637.1629028320312	-557.1757202148438	1391.6591796875	342.1145935058594	-510.5169067382812	1538.5302734375	649.6060180664062	-537.146240234375	1608.027099609375	540.3062744140625	-532.8047485351562	1738.34375	86.07430267333984	-239.2039031982422	1451.787841796875	418.9169311523438	-529.87744140625	1528.485107421875	553.0690307617188	-519.1234741210938	1817.506103515625	707.9774780273438	-241.1209716796875	1450.70166015625	39.9095573425293	-456.7003479003906	1747.5546875	677.5139770507812	-225.5497283935547	1858.06494140625	618.8673706054688	-265.6510925292969	1783.887817382812	584.1427612304688	-243.1575622558594	1541.904296875	473.0874938964844	-529.105224609375	1824.49267578125	530.40283203125	-252.9465179443359	1518.170288085938	370.0572814941406	-523.3834838867188	1454.682373046875	290.8728637695312	-508.4184875488281	1803.6328125	411.8836364746094	-250.0782012939453	1383.99951171875	55.03940582275391	-518.6593627929688	1724.07177734375	445.6696472167969	-249.7283935546875	1242.88671875	156.1370239257812	-403.6537780761719	1757.208129882812	319.7542724609375	-263.1592102050781	1687.194213867188	357.3412475585938	-261.6367797851562	1314.554931640625	176.8164672851562	-489.5264282226562	1641.417602539062	188.8063049316406	-279.1995239257812	1812.9384765625	68.57752227783203	-302.6687316894531	1577.524536132812	176.8011474609375	-336.4726867675781	1582.2490234375	145.4589385986328	-363.835693359375	1567.92138671875	158.8074035644531	-312.8849182128906	1231.515014648438	158.3463592529297	-455.655517578125
